<svg width="36" height="36" viewBox="0 0 36 36" fill="none" xmlns="http://www.w3.org/2000/svg"><path d="M4.93955 33.014C4.93955 33.6558 5.44187 34.1581 6.08373 34.1581C6.72559 34.1581 7.22792 33.6558 7.22792 33.014V10.3535C9.06978 9.85116 10.4372 8.17674 10.4372 6.16744C10.4372 3.79535 8.51164 1.84186 6.11164 1.84186C3.71164 1.84186 1.81396 3.79535 1.81396 6.16744C1.81396 8.14883 3.1535 9.82325 4.96745 10.3256V33.014H4.93955ZM4.04652 6.16744C4.04652 5.05116 4.96745 4.13023 6.08373 4.13023C7.20001 4.13023 8.12094 5.05116 8.12094 6.16744C8.12094 7.28372 7.20001 8.20465 6.08373 8.20465C4.96745 8.20465 4.04652 7.28372 4.04652 6.16744Z" fill="white"/><path d="M17.9721 1.84186C17.3303 1.84186 16.8279 2.34418 16.8279 2.98604V14.7628C15.014 15.2651 13.6744 16.9395 13.6744 18.9209C13.6744 20.9023 15.014 22.5767 16.8279 23.0791V33.0419C16.8279 33.6837 17.3303 34.186 17.9721 34.186C18.614 34.186 19.1163 33.6837 19.1163 33.0419V23.0791C20.9582 22.5767 22.3256 20.9023 22.3256 18.893C22.3256 16.8837 20.9582 15.2093 19.1163 14.707V2.98604C19.1163 2.34418 18.614 1.84186 17.9721 1.84186ZM20.0651 18.9209C20.0651 20.0372 19.1442 20.9581 18.0279 20.9581C16.9116 20.9581 15.9907 20.0372 15.9907 18.9209C15.9907 17.8046 16.9116 16.8837 18.0279 16.8837C19.1442 16.8837 20.0651 17.7767 20.0651 18.9209Z" fill="white"/><path d="M31.0047 25.6744V2.98604C31.0047 2.34418 30.5023 1.84186 29.8605 1.84186C29.2186 1.84186 28.7163 2.34418 28.7163 2.98604V25.6744C26.8744 26.1767 25.5349 27.8512 25.5349 29.8326C25.5349 32.2047 27.4605 34.1581 29.8605 34.1581C32.2605 34.1581 34.186 32.2326 34.186 29.8326C34.214 27.8512 32.8465 26.1767 31.0047 25.6744ZM29.8884 31.8698C28.7721 31.8698 27.8512 30.9488 27.8512 29.8326C27.8512 28.7163 28.7721 27.7953 29.8884 27.7953C31.0047 27.7953 31.9256 28.7163 31.9256 29.8326C31.9256 30.9488 31.0047 31.8698 29.8884 31.8698Z" fill="white"/></svg>
